# xmcd
#
# Track frame offsets: 
#        150
#        10776
#        23456
#        35212
#        48288
#        61153
#        74042
#        88789
#        101989
#        112605
#        123189
#        136606
#        150363
#        163423
#        175383
#        187161
#        200599
#        214009
#        224784
#        238678
#        252579
#        263226
#        276382
#        289113
#        299091
#        312167
#        325842
#
# Disc length: 4525 seconds
#
# Revision: 0
# Processed by: cddbd v1.4PL0 Copyright (c) Steve Scherf et al.
# Submitted via: ExactAudioCopy v0.90b3
#
DISCID=a511ab1b
DTITLE=Steve Gibson and the Red Caps - You're Driving Me Crazy
DYEAR=1900
DGENRE=
TTITLE0=You're Driving Me Crazy
TTITLE1=Wedding Bells
TTITLE2=Blueberry Hill
TTITLE3=I Don't Want to Set the World on Fire
TTITLE4=Jack, You're Dead
TTITLE5=Turnip Greens
TTITLE6=You Made Me Love You
TTITLE7=Are You Lonesome Tonight?
TTITLE8=Dirt Dishin' Daisy
TTITLE9=I Wake Up Every Morning
TTITLE10=You Can't See the Sun When You're Crying
TTITLE11=Steve's Blues
TTITLE12=Bless You
TTITLE13=I Want a Roof Over My Head
TTITLE14=San Antonio Rose
TTITLE15=Little White Lies
TTITLE16=I'll Never Love Anyone Else
TTITLE17=Danny Boy
TTITLE18=Sentimental Me
TTITLE19=Walking Through Heaven
TTITLE20=I Love You
TTITLE21=Second Hand Romance
TTITLE22=I Lived a Lifetime For You
TTITLE23=Let the Rest of the World Go By
TTITLE24=Give Me Time
TTITLE25=Scratch! And You'll Find It
TTITLE26=Money is Honey
EXTD=
EXTT0=
EXTT1=
EXTT2=
EXTT3=
EXTT4=
EXTT5=
EXTT6=
EXTT7=
EXTT8=
EXTT9=
EXTT10=
EXTT11=
EXTT12=
EXTT13=
EXTT14=
EXTT15=
EXTT16=
EXTT17=
EXTT18=
EXTT19=
EXTT20=
EXTT21=
EXTT22=
EXTT23=
EXTT24=
EXTT25=
EXTT26=
PLAYORDER=
